<svg width="24" height="24" viewBox="0 0 24 24" fill="none" xmlns="http://www.w3.org/2000/svg">
<g opacity="0.8">
<rect width="24" height="24" rx="5" fill="#57282B"/>
<path d="M19 7.8892V17.2778C19 17.4693 18.9181 17.653 18.7722 17.7885C18.6263 17.9239 18.4285 18 18.2222 18H8.11145C7.90517 18 7.70735 17.9239 7.56149 17.7885C7.41564 17.653 7.33369 17.4693 7.33369 17.2778C7.33369 17.0863 7.41564 16.9026 7.56149 16.7671C7.70735 16.6317 7.90517 16.5556 8.11145 16.5556H16.3449L5.22793 6.23356C5.08199 6.09804 5 5.91425 5 5.7226C5 5.53096 5.08199 5.34716 5.22793 5.21165C5.37386 5.07613 5.5718 5 5.77819 5C5.98457 5 6.18251 5.07613 6.32845 5.21165L17.4445 15.5346V7.8892C17.4445 7.69766 17.5264 7.51397 17.6723 7.37853C17.8181 7.24309 18.016 7.167 18.2222 7.167C18.4285 7.167 18.6263 7.24309 18.7722 7.37853C18.9181 7.51397 19 7.69766 19 7.8892Z" fill="#EF4444"/>
</g>
</svg>
