<svg width="24" height="24" viewBox="0 0 24 24" fill="none" xmlns="http://www.w3.org/2000/svg">
<rect width="24" height="24" rx="5" fill="#273D2B"/>
<path d="M18.5004 5.75V15.5C18.5004 15.6989 18.4214 15.8897 18.2807 16.0303C18.1401 16.171 17.9493 16.25 17.7504 16.25C17.5515 16.25 17.3607 16.171 17.2201 16.0303C17.0794 15.8897 17.0004 15.6989 17.0004 15.5V7.56031L6.28104 18.2806C6.14031 18.4214 5.94944 18.5004 5.75042 18.5004C5.55139 18.5004 5.36052 18.4214 5.21979 18.2806C5.07906 18.1399 5 17.949 5 17.75C5 17.551 5.07906 17.3601 5.21979 17.2194L15.9401 6.5H8.00042C7.8015 6.5 7.61074 6.42098 7.47009 6.28033C7.32943 6.13968 7.25042 5.94891 7.25042 5.75C7.25042 5.55109 7.32943 5.36032 7.47009 5.21967C7.61074 5.07902 7.8015 5 8.00042 5H17.7504C17.9493 5 18.1401 5.07902 18.2807 5.21967C18.4214 5.36032 18.5004 5.55109 18.5004 5.75Z" fill="#39FF88"/>
</svg>
