<svg width="48" height="48" viewBox="0 0 48 48" fill="none" xmlns="http://www.w3.org/2000/svg">
<path d="M0 10C0 4.47715 4.47715 0 10 0H38C43.5229 0 48 4.47715 48 10V38C48 43.5229 43.5228 48 38 48H10C4.47715 48 0 43.5228 0 38V10Z" fill="#00FF7F"/>
<path d="M16 26.0002C15.8108 26.0008 15.6252 25.9477 15.4649 25.8471C15.3047 25.7465 15.1762 25.6025 15.0945 25.4318C15.0129 25.2611 14.9813 25.0707 15.0035 24.8828C15.0257 24.6949 15.1008 24.5171 15.22 24.3702L25.12 14.1702C25.1943 14.0844 25.2955 14.0265 25.407 14.0059C25.5185 13.9853 25.6337 14.0032 25.7337 14.0567C25.8337 14.1102 25.9126 14.1961 25.9573 14.3003C26.0021 14.4045 26.0101 14.5208 25.98 14.6302L24.06 20.6502C24.0034 20.8017 23.9844 20.9647 24.0046 21.1252C24.0248 21.2857 24.0837 21.4388 24.1761 21.5716C24.2685 21.7043 24.3918 21.8127 24.5353 21.8873C24.6788 21.962 24.8382 22.0007 25 22.0002H32C32.1892 21.9995 32.3748 22.0526 32.535 22.1532C32.6953 22.2538 32.8238 22.3978 32.9054 22.5685C32.9871 22.7392 33.0187 22.9296 32.9965 23.1175C32.9743 23.3054 32.8992 23.4832 32.78 23.6302L22.88 33.8302C22.8057 33.9159 22.7045 33.9738 22.593 33.9944C22.4815 34.0151 22.3663 33.9972 22.2663 33.9437C22.1663 33.8902 22.0874 33.8043 22.0427 33.7001C21.9979 33.5958 21.9899 33.4795 22.02 33.3702L23.94 27.3502C23.9966 27.1986 24.0156 27.0356 23.9954 26.8752C23.9752 26.7147 23.9163 26.5615 23.8239 26.4287C23.7315 26.296 23.6082 26.1876 23.4647 26.113C23.3212 26.0384 23.1617 25.9996 23 26.0002H16Z" stroke="white" stroke-width="2" stroke-linecap="round" stroke-linejoin="round"/>
</svg>
