<svg width="48" height="48" viewBox="0 0 48 48" fill="none" xmlns="http://www.w3.org/2000/svg">
<path d="M0 10C0 4.47715 4.47715 0 10 0H38C43.5229 0 48 4.47715 48 10V38C48 43.5229 43.5228 48 38 48H10C4.47715 48 0 43.5228 0 38V10Z" fill="#FB2C36"/>
<path d="M14.5 29C13.8014 25.7033 13.8014 22.2967 14.5 19C14.5918 18.6652 14.7691 18.3601 15.0146 18.1146C15.2601 17.8691 15.5652 17.6918 15.9 17.6C21.2635 16.7115 26.7366 16.7115 32.1 17.6C32.4348 17.6918 32.7399 17.8691 32.9854 18.1146C33.2309 18.3601 33.4082 18.6652 33.5 19C34.1986 22.2967 34.1986 25.7033 33.5 29C33.4082 29.3348 33.2309 29.6399 32.9854 29.8854C32.7399 30.1309 32.4348 30.3082 32.1 30.4C26.7366 31.2887 21.2634 31.2887 15.9 30.4C15.5652 30.3082 15.2601 30.1309 15.0146 29.8854C14.7691 29.6399 14.5918 29.3348 14.5 29Z" stroke="white" stroke-width="2" stroke-linecap="round" stroke-linejoin="round"/>
<path d="M22 27L27 24L22 21V27Z" stroke="white" stroke-width="2" stroke-linecap="round" stroke-linejoin="round"/>
</svg>
